# xmcd
#
# Track frame offsets: 
#        150
#        14425
#        25542
#        36907
#        49412
#        60920
#        72500
#        87242
#        98965
#
# Disc length: 1482 seconds
#
# Revision: 0
# Processed by: cddbd v1.4PL0 Copyright (c) Steve Scherf et al.
# Submitted via: ExactAudioCopy v0.90b4
#
DISCID=7005c809
DTITLE=Floyd Cramer - Almost Persuaded and Other Hits
DYEAR=1987
DGENRE=Country
TTITLE0=Almost Persuaded
TTITLE1=Strangers In The Night
TTITLE2=Born Free
TTITLE3=Red Roses For A Blue Lady
TTITLE4=Canadian Sunset
TTITLE5=King Of The Road
TTITLE6=A Taste Of Honey
TTITLE7=A Little Bit Me, A Little Bit You
TTITLE8=I'm A Believer
EXTD=
EXTT0=
EXTT1=
EXTT2=
EXTT3=
EXTT4=
EXTT5=
EXTT6=
EXTT7=
EXTT8=
PLAYORDER=
